<?xml version="1.0" encoding="UTF-8"?>
<svg width="21px" height="15px" viewBox="0 0 21 15" version="1.1" xmlns="http://www.w3.org/2000/svg" xmlns:xlink="http://www.w3.org/1999/xlink">
    <!-- Generator: Sketch 42 (36781) - http://www.bohemiancoding.com/sketch -->
    <title>Combined Shape Copy 2</title>
    <desc>Created with Sketch.</desc>
    <defs></defs>
    <g id="LMS-Styles" stroke="none" stroke-width="1" fill="none" fill-rule="evenodd">
        <g id="Masterclass-Discover-Module-Detail---Desktop" transform="translate(-165.000000, -93.000000)" fill="#FFFFFF">
            <path d="M182.9462,101.470988 L178.912322,106.422832 C178.572149,106.836452 178.637864,107.447218 179.051484,107.783526 C179.233168,107.926553 179.445776,108 179.66225,108 C179.940574,108 180.222763,107.880166 180.412178,107.632767 L185.64986,101.203665 C185.812224,101.048296 185.92003,100.836706 185.943094,100.600169 C185.970093,100.350863 185.89948,100.092446 185.731255,99.8860893 L180.412178,93.3570777 C180.072005,92.9395921 179.461239,92.8816079 179.051484,93.2179158 C178.637864,93.5580893 178.576015,94.1649897 178.912322,94.5786098 L182.952498,99.5381846 L165.966402,99.5381846 C165.432948,99.5381846 165,99.9711326 165,100.504586 C165,101.03804 165.432948,101.470988 165.966402,101.470988 L182.9462,101.470988 Z" id="Combined-Shape-Copy-2" transform="translate(175.474348, 100.500000) scale(-1, 1) translate(-175.474348, -100.500000) "></path>
        </g>
    </g>
</svg>