<?xml version="1.0" encoding="UTF-8"?>
<svg width="19px" height="18px" viewBox="0 0 19 18" version="1.1" xmlns="http://www.w3.org/2000/svg" xmlns:xlink="http://www.w3.org/1999/xlink">
    <!-- Generator: Sketch 42 (36781) - http://www.bohemiancoding.com/sketch -->
    <title>Group</title>
    <desc>Created with Sketch.</desc>
    <defs></defs>
    <g id="Symbols" stroke="none" stroke-width="1" fill="none" fill-rule="evenodd">
        <g id="Header" transform="translate(-1009.000000, -17.000000)" fill="#757575">
            <g id="Group" transform="translate(1009.000000, 17.000000)">
                <path d="M17.1428571,1.71471429 L14.5714286,1.71471429 L14.5714286,0.000428571429 L12.8571429,0.000428571429 L12.8571429,5.14328571 L14.5714286,5.14328571 L14.5714286,3.429 L17.1428571,3.429 L17.1428571,16.2861429 L1.71428571,16.2861429 L1.71428571,3.429 L3.42857143,3.429 L3.42857143,1.71471429 L1.71428571,1.71471429 C0.768,1.71471429 0,2.48271429 0,3.429 L0,16.2861429 C0,17.2324286 0.768,18.0004286 1.71428571,18.0004286 L17.1428571,18.0004286 C18.0891429,18.0004286 18.8571429,17.2324286 18.8571429,16.2861429 L18.8571429,3.429 C18.8571429,2.48271429 18.0891429,1.71471429 17.1428571,1.71471429" id="Fill-285"></path>
                <polygon id="Fill-286" points="6 3.429 12 3.429 12 1.71471429 6 1.71471429 6 0.000428571429 4.28571429 0.000428571429 4.28571429 5.14328571 6 5.14328571"></polygon>
                <polygon id="Fill-287" points="6.85714286 6.85714286 3.42857143 6.85714286 3.42857143 10.2857143 6.85714286 10.2857143"></polygon>
                <polygon id="Fill-288" points="11.1428571 6.85714286 7.71428571 6.85714286 7.71428571 10.2857143 11.1428571 10.2857143"></polygon>
                <polygon id="Fill-289" points="12 10.2857143 15.4285714 10.2857143 15.4285714 6.85714286 12 6.85714286"></polygon>
                <polygon id="Fill-290" points="3.42857143 14.5714286 6.85714286 14.5714286 6.85714286 11.1428571 3.42857143 11.1428571"></polygon>
                <polygon id="Fill-291" points="7.71428571 14.5714286 11.1428571 14.5714286 11.1428571 11.1428571 7.71428571 11.1428571"></polygon>
            </g>
        </g>
    </g>
</svg>