<?xml version="1.0" encoding="UTF-8"?>
<svg width="295px" height="192px" viewBox="0 0 295 192" version="1.1" xmlns="http://www.w3.org/2000/svg" xmlns:xlink="http://www.w3.org/1999/xlink">
    <defs>
        <polygon id="path-1" points="0.123815714 21.0526316 21.1236014 21.0526316 21.1236014 0.0422736842 0.123815714 0.0422736842 0.123815714 21.0526316"></polygon>
        <polygon id="path-3" points="86.1447583 0.842105263 0.970695995 0.842105263 0.970695995 74.8352 86.1447583 74.8352 86.1447583 0.842105263"></polygon>
    </defs>
    <g id="LMS-Styles" stroke="none" stroke-width="1" fill="none" fill-rule="evenodd">
        <g id="Login---Desktop-1A" transform="translate(-493.000000, -72.000000)">
            <g id="Page-1" transform="translate(493.000000, 72.000000)">
                <path d="M22.3511386,145.015832 C20.0610957,139.926147 17.81741,134.789305 15.5273671,129.700463 L15.1539814,129.700463 L8.33021,145.015832 L22.3511386,145.015832 Z M0.151124286,154.914779 L14.3591671,123.489937 C14.4990814,123.208674 14.7333957,122.976253 15.1539814,122.976253 L15.6209243,122.976253 C16.04151,122.976253 16.2758243,123.208674 16.4157386,123.489937 L30.5302243,154.914779 C30.8108957,155.522779 30.4366671,156.129095 29.73541,156.129095 L27.8659529,156.129095 C27.4453671,156.129095 27.1646957,155.849516 27.0719814,155.615411 L23.6128957,147.910989 L7.02125286,147.910989 L3.60936714,155.615411 C3.51665286,155.849516 3.23598143,156.129095 2.81539571,156.129095 L0.945938571,156.129095 C0.244681429,156.129095 -0.129547143,155.522779 0.151124286,154.914779 L0.151124286,154.914779 Z" id="Fill-1" fill="#FFFFFF"></path>
                <path d="M34.9688786,151.226358 C35.20235,150.945937 35.4366643,150.6192 35.6701357,150.338779 C36.1370786,149.732463 36.6512214,149.358568 37.3061214,149.918568 C37.63315,150.198989 41.0450357,153.468042 45.2045357,153.468042 C48.9898071,153.468042 51.4669643,151.085726 51.4669643,148.3312 C51.4669643,145.109305 48.6627786,143.194358 43.2878786,140.953516 C38.1472929,138.711832 35.0624357,136.610779 35.0624357,131.287832 C35.0624357,128.112253 37.58595,122.976253 45.0174214,122.976253 C49.5975071,122.976253 53.0093929,125.356884 53.0093929,125.356884 C53.2900643,125.497516 53.8505643,126.057516 53.2900643,126.945095 C53.10295,127.225516 52.9158357,127.552253 52.7287214,127.831832 C52.3081357,128.486147 51.8411929,128.672253 51.0935786,128.252042 C50.7657071,128.065937 47.8216071,126.103832 44.9702214,126.103832 C40.01675,126.103832 38.5206786,129.279411 38.5206786,131.240674 C38.5206786,134.369095 40.9042786,136.190568 44.8303071,137.824253 C51.1399357,140.392674 55.2058786,142.774147 55.2058786,148.191411 C55.2058786,153.047832 50.5794357,156.596463 45.1109786,156.596463 C39.5961643,156.596463 35.85725,153.374568 35.24955,152.813726 C34.8753214,152.486989 34.4083786,152.113937 34.9688786,151.226358" id="Fill-3" fill="#FFFFFF"></path>
                <path d="M60.8132386,124.563537 C60.8132386,123.956379 61.2801814,123.442695 61.9350814,123.442695 L63.2903957,123.442695 C63.8980957,123.442695 64.4122386,123.956379 64.4122386,124.563537 L64.4122386,137.777853 L78.9936671,123.910063 C79.1807814,123.675958 79.6013671,123.442695 79.8820386,123.442695 L82.1720814,123.442695 C83.0132529,123.442695 83.4810386,124.376589 82.7325814,125.077221 L67.9640386,138.852379 L83.4338386,154.682274 C83.7608671,155.009011 83.66731,156.129011 82.6390243,156.129011 L80.2554243,156.129011 C79.9283957,156.129011 79.50781,155.942905 79.4142529,155.802274 L64.4122386,140.160168 L64.4122386,155.009011 C64.4122386,155.616168 63.8980957,156.129011 63.2903957,156.129011 L61.9350814,156.129011 C61.2801814,156.129011 60.8132386,155.616168 60.8132386,155.009011 L60.8132386,124.563537 Z" id="Fill-5" fill="#FFFFFF"></path>
                <path d="M105.631999,123.629811 C105.725556,123.255916 106.098941,122.976337 106.47317,122.976337 L107.220784,122.976337 C107.547813,122.976337 107.922041,123.208758 108.015599,123.489179 L117.269327,149.218863 L117.502799,149.218863 L126.616613,123.489179 C126.71017,123.208758 127.084399,122.976337 127.411427,122.976337 L128.159041,122.976337 C128.53327,122.976337 128.906656,123.255916 129.000213,123.629811 L135.02917,155.009179 C135.169927,155.662653 134.889256,156.129179 134.187999,156.129179 L132.318541,156.129179 C131.944313,156.129179 131.570927,155.802442 131.47737,155.475705 L127.31787,131.427705 L127.130756,131.427705 L118.531084,156.082863 C118.437527,156.363284 118.016941,156.596547 117.737113,156.596547 L116.895941,156.596547 C116.61527,156.596547 116.194684,156.363284 116.101127,156.082863 L107.407899,131.427705 L107.220784,131.427705 L103.154841,155.475705 C103.108484,155.802442 102.687899,156.129179 102.31367,156.129179 L100.444213,156.129179 C99.7429557,156.129179 99.4622843,155.662653 99.6030414,155.009179 L105.631999,123.629811 Z" id="Fill-7" fill="#FFFFFF"></path>
                <path d="M141.337787,124.330021 C141.337787,123.862653 141.712016,123.442442 142.225316,123.442442 L160.640059,123.442442 C161.154201,123.442442 161.52843,123.862653 161.52843,124.330021 L161.52843,125.684126 C161.52843,126.151495 161.154201,126.571705 160.640059,126.571705 L144.936787,126.571705 L144.936787,137.964547 L158.350016,137.964547 C158.817801,137.964547 159.238387,138.384758 159.238387,138.852126 L159.238387,140.206232 C159.238387,140.719916 158.817801,141.093811 158.350016,141.093811 L144.936787,141.093811 L144.936787,153.000337 L160.640059,153.000337 C161.154201,153.000337 161.52843,153.420547 161.52843,153.887916 L161.52843,155.242021 C161.52843,155.709389 161.154201,156.1296 160.640059,156.1296 L142.225316,156.1296 C141.712016,156.1296 141.337787,155.709389 141.337787,155.242021 L141.337787,124.330021 Z" id="Fill-9" fill="#FFFFFF"></path>
                <path d="M176.108931,126.571368 L167.977046,126.571368 C167.462903,126.571368 167.088674,126.151158 167.088674,125.683789 L167.088674,124.329684 C167.088674,123.863158 167.462903,123.442947 167.977046,123.442947 L187.79346,123.442947 C188.307603,123.442947 188.680989,123.863158 188.680989,124.329684 L188.680989,125.683789 C188.680989,126.151158 188.307603,126.571368 187.79346,126.571368 L179.660731,126.571368 L179.660731,155.241684 C179.660731,155.709053 179.240146,156.129263 178.773203,156.129263 L176.997303,156.129263 C176.529517,156.129263 176.108931,155.709053 176.108931,155.241684 L176.108931,126.571368 Z" id="Fill-11" fill="#FFFFFF"></path>
                <path d="M194.756303,124.330021 C194.756303,123.862653 195.176889,123.442442 195.643831,123.442442 L197.466931,123.442442 C197.981074,123.442442 198.355303,123.862653 198.355303,124.330021 L198.355303,137.964547 L217.329703,137.964547 L217.329703,124.330021 C217.329703,123.862653 217.703931,123.442442 218.218074,123.442442 L220.041174,123.442442 C220.508117,123.442442 220.928703,123.862653 220.928703,124.330021 L220.928703,155.242021 C220.928703,155.709389 220.508117,156.1296 220.041174,156.1296 L218.218074,156.1296 C217.703931,156.1296 217.329703,155.709389 217.329703,155.242021 L217.329703,141.093811 L198.355303,141.093811 L198.355303,155.242021 C198.355303,155.709389 197.981074,156.1296 197.466931,156.1296 L195.643831,156.1296 C195.176889,156.1296 194.756303,155.709389 194.756303,155.242021 L194.756303,124.330021 Z" id="Fill-13" fill="#FFFFFF"></path>
                <path d="M243.454819,153.327579 C250.88629,153.327579 257.008804,147.257684 257.008804,139.832842 C257.008804,132.408 250.88629,126.244632 243.454819,126.244632 C236.023347,126.244632 229.948033,132.408 229.948033,139.832842 C229.948033,147.257684 236.023347,153.327579 243.454819,153.327579 M243.454819,122.976421 C252.802104,122.976421 260.279933,130.493895 260.279933,139.832842 C260.279933,149.171789 252.802104,156.596632 243.454819,156.596632 C234.107533,156.596632 226.676061,149.171789 226.676061,139.832842 C226.676061,130.493895 234.107533,122.976421 243.454819,122.976421" id="Fill-15" fill="#FFFFFF"></path>
                <path d="M276.449894,152.907284 C284.114837,152.907284 289.676851,147.443705 289.676851,139.739284 C289.676851,132.081179 284.114837,126.618442 276.449894,126.618442 L269.439851,126.618442 L269.439851,152.907284 L276.449894,152.907284 Z M265.887209,124.3296 C265.887209,123.863074 266.261437,123.442863 266.72838,123.442863 L277.197509,123.442863 C286.217766,123.442863 293.602037,130.774232 293.602037,139.739284 C293.602037,148.798653 286.217766,156.129179 277.197509,156.129179 L266.72838,156.129179 C266.261437,156.129179 265.887209,155.708968 265.887209,155.2416 L265.887209,124.3296 Z" id="Fill-17" fill="#FFFFFF"></path>
                <path d="M10.7026,170.843621 C13.6526,170.843621 15.7850286,171.865095 17.7708,173.557726 C18.0042714,173.790989 18.0337714,174.141305 17.7994571,174.374568 L17.0113857,175.162779 C16.7779143,175.454147 16.5436,175.424674 16.2519714,175.133305 C14.7331429,173.820463 12.6597143,172.944674 10.6731,172.944674 C6.05845714,172.944674 2.52435714,176.825937 2.52435714,181.348884 C2.52435714,185.8432 6.05845714,189.723621 10.6731,189.723621 C13.2143143,189.723621 14.7036429,188.702989 16.2519714,187.534989 C16.5436,187.301726 16.7779143,187.3312 16.9532286,187.447411 L17.8289571,188.235621 C18.0624286,188.410779 18.0042714,188.8192 17.7994571,189.023832 C15.8136857,190.949726 13.3019714,191.854147 10.7026,191.854147 C4.86075714,191.854147 0.158457143,187.214147 0.158457143,181.378358 C0.158457143,175.541726 4.86075714,170.843621 10.7026,170.843621" id="Fill-19" fill="#FFFFFF"></path>
                <g id="Group-23" transform="translate(45.514286, 170.801684)">
                    <mask id="mask-2" fill="white">
                        <use xlink:href="#path-1"></use>
                    </mask>
                    <g id="Clip-22"></g>
                    <path d="M10.6089586,19.0098526 C15.2531014,19.0098526 19.07883,15.2161684 19.07883,10.5761684 C19.07883,5.93701053 15.2531014,2.08437895 10.6089586,2.08437895 C5.96481571,2.08437895 2.16774429,5.93701053 2.16774429,10.5761684 C2.16774429,15.2161684 5.96481571,19.0098526 10.6089586,19.0098526 M10.6089586,0.0422736842 C16.4499586,0.0422736842 21.1236014,4.74037895 21.1236014,10.5761684 C21.1236014,16.4128 16.4499586,21.0528 10.6089586,21.0528 C4.76711571,21.0528 0.123815714,16.4128 0.123815714,10.5761684 C0.123815714,4.74037895 4.76711571,0.0422736842 10.6089586,0.0422736842" id="Fill-21" fill="#FFFFFF" mask="url(#mask-2)"></path>
                </g>
                <g id="Group-26" transform="translate(94.000000, 170.696421)" fill="#FFFFFF">
                    <path d="M4.24410286,0.555873684 C4.30226,0.322610526 4.53657429,0.147452632 4.77004571,0.147452632 L5.23698857,0.147452632 C5.44180286,0.147452632 5.67527429,0.293136842 5.73343143,0.468294737 L11.5171171,16.5474526 L11.6629314,16.5474526 L17.3581171,0.468294737 C17.4162743,0.293136842 17.6505886,0.147452632 17.85456,0.147452632 L18.3223457,0.147452632 C18.5558171,0.147452632 18.7892886,0.322610526 18.8474457,0.555873684 L22.61586,20.1659789 C22.7035171,20.5735579 22.5282029,20.8657684 22.0899171,20.8657684 L20.9217171,20.8657684 C20.6882457,20.8657684 20.4539314,20.6619789 20.3957743,20.4573474 L17.7964029,5.42913684 L17.6792457,5.42913684 L12.3051886,20.8371368 C12.2470314,21.0122947 11.98406,21.1579789 11.8087457,21.1579789 L11.2828029,21.1579789 C11.1083314,21.1579789 10.84536,21.0122947 10.78636,20.8371368 L5.35414571,5.42913684 L5.23698857,5.42913684 L2.69661714,20.4573474 C2.66711714,20.6619789 2.40414571,20.8657684 2.17067429,20.8657684 L1.00247429,20.8657684 C0.564188571,20.8657684 0.388874286,20.5735579 0.476531429,20.1659789 L4.24410286,0.555873684 Z" id="Fill-24"></path>
                </g>
                <path d="M152.807556,181.990821 C155.202956,181.990821 157.246884,180.035453 157.246884,177.525979 C157.246884,175.163032 155.202956,173.353347 152.807556,173.353347 L148.163413,173.353347 L148.163413,181.990821 L152.807556,181.990821 Z M145.94417,171.690189 C145.94417,171.397979 146.177641,171.135242 146.49877,171.135242 L152.95337,171.135242 C156.54647,171.135242 159.49647,174.053979 159.49647,177.584926 C159.49647,181.202611 156.54647,184.149979 152.98287,184.149979 L148.163413,184.149979 L148.163413,191.008084 C148.163413,191.299453 147.900441,191.562189 147.608813,191.562189 L146.49877,191.562189 C146.177641,191.562189 145.94417,191.299453 145.94417,191.008084 L145.94417,171.690189 Z" id="Fill-27" fill="#FFFFFF"></path>
                <path d="M199.25067,184.617011 C197.819499,181.436379 196.417827,178.226274 194.986656,175.045642 L194.752341,175.045642 L190.488327,184.617011 L199.25067,184.617011 Z M185.377241,190.803958 L194.255899,171.164379 C194.343556,170.989221 194.490213,170.843537 194.752341,170.843537 L195.044813,170.843537 C195.307784,170.843537 195.453599,170.989221 195.541256,171.164379 L204.361756,190.803958 C204.53707,191.182905 204.303599,191.562695 203.865313,191.562695 L202.697113,191.562695 C202.434141,191.562695 202.258827,191.387537 202.20067,191.241011 L200.039584,186.426695 L189.670756,186.426695 L187.538327,191.241011 C187.48017,191.387537 187.304856,191.562695 187.041884,191.562695 L185.873684,191.562695 C185.435399,191.562695 185.201927,191.182905 185.377241,190.803958 L185.377241,190.803958 Z" id="Fill-29" fill="#FFFFFF"></path>
                <path d="M232.375209,171.369095 C232.375209,171.076884 232.63818,170.843621 232.929809,170.843621 L233.660566,170.843621 L246.832737,187.243621 L246.890894,187.243621 L246.890894,171.689937 C246.890894,171.398568 247.125209,171.135832 247.446337,171.135832 L248.468723,171.135832 C248.760351,171.135832 249.023323,171.398568 249.023323,171.689937 L249.023323,191.328674 C249.023323,191.620884 248.760351,191.854147 248.468723,191.854147 L247.94278,191.854147 L234.536294,175.133305 L234.507637,175.133305 L234.507637,191.007832 C234.507637,191.2992 234.273323,191.562779 233.952194,191.562779 L232.929809,191.562779 C232.63818,191.562779 232.375209,191.2992 232.375209,191.007832 L232.375209,171.369095 Z" id="Fill-31" fill="#FFFFFF"></path>
                <path d="M283.929661,181.728505 L276.890961,171.981979 C276.65749,171.602189 276.890961,171.135663 277.357904,171.135663 L278.730919,171.135663 C278.93489,171.135663 279.110204,171.281347 279.197861,171.3984 L285.097861,179.539874 L290.997861,171.3984 C291.085519,171.281347 291.260833,171.135663 291.464804,171.135663 L292.837819,171.135663 C293.305604,171.135663 293.539076,171.602189 293.305604,171.981979 L286.178404,181.699032 L286.178404,191.008505 C286.178404,191.299874 285.915433,191.562611 285.623804,191.562611 L284.484261,191.562611 C284.163133,191.562611 283.929661,191.299874 283.929661,191.008505 L283.929661,181.728505 Z" id="Fill-33" fill="#FFFFFF"></path>
                <path d="M110.996616,94.2304842 L106.930673,94.2304842 C106.673601,94.2304842 106.486487,94.0199579 106.486487,93.7875368 L106.486487,93.1096421 C106.486487,92.8763789 106.673601,92.6666947 106.930673,92.6666947 L116.838459,92.6666947 C117.09553,92.6666947 117.282644,92.8763789 117.282644,93.1096421 L117.282644,93.7875368 C117.282644,94.0199579 117.09553,94.2304842 116.838459,94.2304842 L112.772516,94.2304842 L112.772516,108.565642 C112.772516,108.799747 112.562644,109.009432 112.32833,109.009432 L111.440801,109.009432 C111.20733,109.009432 110.996616,108.799747 110.996616,108.565642 L110.996616,94.2304842 Z" id="Fill-35" fill="#FFFFFF"></path>
                <path d="M139.01462,93.1100632 C139.01462,92.8768 139.225334,92.6662737 139.458806,92.6662737 L140.369934,92.6662737 C140.627006,92.6662737 140.81412,92.8768 140.81412,93.1100632 L140.81412,99.9277474 L150.30132,99.9277474 L150.30132,93.1100632 C150.30132,92.8768 150.488434,92.6662737 150.745506,92.6662737 L151.656634,92.6662737 C151.890949,92.6662737 152.10082,92.8768 152.10082,93.1100632 L152.10082,108.566063 C152.10082,108.799326 151.890949,109.009853 151.656634,109.009853 L150.745506,109.009853 C150.488434,109.009853 150.30132,108.799326 150.30132,108.566063 L150.30132,101.491537 L140.81412,101.491537 L140.81412,108.566063 C140.81412,108.799326 140.627006,109.009853 140.369934,109.009853 L139.458806,109.009853 C139.225334,109.009853 139.01462,108.799326 139.01462,108.566063 L139.01462,93.1100632 Z" id="Fill-37" fill="#FFFFFF"></path>
                <path d="M176.028944,93.1100632 C176.028944,92.8768 176.216059,92.6662737 176.47313,92.6662737 L185.679659,92.6662737 C185.937573,92.6662737 186.123844,92.8768 186.123844,93.1100632 L186.123844,93.7871158 C186.123844,94.0203789 185.937573,94.2309053 185.679659,94.2309053 L177.828444,94.2309053 L177.828444,99.9277474 L184.535059,99.9277474 C184.76853,99.9277474 184.979244,100.137432 184.979244,100.371537 L184.979244,101.048589 C184.979244,101.304589 184.76853,101.491537 184.535059,101.491537 L177.828444,101.491537 L177.828444,107.445221 L185.679659,107.445221 C185.937573,107.445221 186.123844,107.655747 186.123844,107.889011 L186.123844,108.566063 C186.123844,108.799326 185.937573,109.009853 185.679659,109.009853 L176.47313,109.009853 C176.216059,109.009853 176.028944,108.799326 176.028944,108.566063 L176.028944,93.1100632 Z" id="Fill-39" fill="#FFFFFF"></path>
                <path d="M89.1211857,101.978442 L0.842857143,101.978442 C0.3776,101.978442 0,101.601179 0,101.136337 C0,100.671495 0.3776,100.294232 0.842857143,100.294232 L89.1211857,100.294232 C89.5864429,100.294232 89.9640429,100.671495 89.9640429,101.136337 C89.9640429,101.601179 89.5864429,101.978442 89.1211857,101.978442" id="Fill-41" fill="#FFFFFF"></path>
                <path d="M293.386687,101.978442 L205.108359,101.978442 C204.643101,101.978442 204.265501,101.601179 204.265501,101.136337 C204.265501,100.671495 204.643101,100.294232 205.108359,100.294232 L293.386687,100.294232 C293.851944,100.294232 294.229544,100.671495 294.229544,101.136337 C294.229544,101.601179 293.851944,101.978442 293.386687,101.978442" id="Fill-43" fill="#FFFFFF"></path>
                <g id="Group-55" transform="translate(102.828571, 0.696421)"></g>
                <g id="Group" transform="translate(102.000000, 0.000000)">
                    <polygon id="Fill-45" fill="#7AA2C7" points="43.5576357 7.02122105 25.9301214 37.5264842 43.5576357 47.6949053 61.18515 37.5264842"></polygon>
                    <polygon id="Fill-47" fill="#4D73A5" points="24.1052514 40.6844632 8.30168 68.0326737 11.3646229 66.2650947 39.9088229 49.7994105"></polygon>
                    <polygon id="Fill-49" fill="#FFE100" points="10.1264657 71.1893895 33.6817943 71.1893895 68.8988943 50.8736 63.0098514 40.6841263 54.5543086 45.5616"></polygon>
                    <polygon id="Fill-51" fill="#375477" points="70.7233429 54.0327579 40.9797571 71.1898105 80.6378714 71.1898105"></polygon>
                    <mask id="mask-4" fill="white">
                        <use xlink:href="#path-3"></use>
                    </mask>
                    <g id="Clip-54"></g>
                    <path d="M54.5543086,45.5619368 L63.0098514,40.6844632 L68.8988943,50.8739368 L33.6817943,71.1897263 L10.1264657,71.1897263 L54.5543086,45.5619368 Z M24.1052514,40.6844632 L39.9088229,49.7994105 L11.3646229,66.2650947 L8.30168,68.0326737 L24.1052514,40.6844632 Z M61.1850657,37.5265684 L43.5575514,47.6949895 L25.9300371,37.5265684 L43.5575514,7.02130526 L61.1850657,37.5265684 Z M70.72368,54.0326737 L80.6382086,71.1897263 L40.9800943,71.1897263 L70.72368,54.0326737 Z M72.0596086,49.0516211 L64.3466229,35.7034105 L64.34578,35.7034105 L44.52178,1.39772632 C44.0936086,0.656673684 43.0223371,0.656673684 42.5933229,1.39772632 L22.7693229,35.7034105 L22.7693229,35.7034105 L1.98193714,71.6781474 L1.12138,73.1669895 C0.693208571,73.9088842 1.22842286,74.8352 2.08560857,74.8352 L3.80588,74.8352 L27.3612086,74.8352 L34.6595086,74.8352 L85.0294943,74.8352 C85.88668,74.8352 86.4227371,73.9088842 85.9937229,73.1669895 L72.0596086,49.0516211 Z" id="Fill-53" fill="#FFFFFF" mask="url(#mask-4)"></path>
                </g>
            </g>
        </g>
    </g>
</svg>