<?xml version="1.0" standalone="no"?>
<!DOCTYPE svg PUBLIC "-//W3C//DTD SVG 20010904//EN"
 "http://www.w3.org/TR/2001/REC-SVG-20010904/DTD/svg10.dtd">
<svg version="1.0" xmlns="http://www.w3.org/2000/svg"
 width="260.000000pt" height="260.000000pt" viewBox="0 0 260.000000 260.000000"
 preserveAspectRatio="xMidYMid meet">
<metadata>
Created by potrace 1.11, written by Peter Selinger 2001-2013
</metadata>
<g transform="translate(0.000000,260.000000) scale(0.100000,-0.100000)"
fill="#000000" stroke="none">
<path d="M1277 2128 c-16 -25 -78 -132 -292 -503 -76 -132 -193 -334 -260
-450 -67 -115 -177 -307 -244 -425 -68 -118 -132 -228 -143 -243 -42 -60 -99
-57 961 -57 606 0 972 4 976 10 3 5 -38 85 -91 177 -53 92 -145 251 -204 353
-58 102 -193 336 -300 520 -106 184 -232 402 -279 484 -47 82 -91 151 -98 153
-6 2 -18 -6 -26 -19z m146 -305 c111 -192 183 -316 472 -818 76 -132 169 -293
207 -357 37 -64 68 -119 68 -122 0 -4 -391 -6 -870 -6 -478 0 -870 3 -870 6 0
5 71 129 360 629 73 127 176 304 228 395 52 91 132 229 178 308 46 79 84 147
84 152 0 6 6 10 14 10 8 0 66 -88 129 -197z"/>
<path d="M852 1097 c-101 -171 -241 -417 -238 -417 9 0 574 326 589 340 7 6
-89 65 -255 158 l-37 21 -59 -102z"/>
<path d="M1735 872 c-55 -32 -181 -105 -280 -163 l-180 -104 374 -3 c206 -1
376 0 379 3 3 2 -20 46 -50 97 -30 51 -72 123 -92 161 -21 37 -41 67 -44 67
-4 0 -52 -26 -107 -58z"/>
</g>
</svg>
