<?xml version="1.0" encoding="UTF-8"?>
<svg width="15px" height="13px" viewBox="0 0 15 13" version="1.1" xmlns="http://www.w3.org/2000/svg" xmlns:xlink="http://www.w3.org/1999/xlink">
    <defs>
        <rect id="path-1" x="165" y="129" width="950" height="1281" rx="3"></rect>
        <filter x="-50%" y="-50%" width="200%" height="200%" filterUnits="objectBoundingBox" id="filter-2">
            <feOffset dx="0" dy="2" in="SourceAlpha" result="shadowOffsetOuter1"></feOffset>
            <feGaussianBlur stdDeviation="2" in="shadowOffsetOuter1" result="shadowBlurOuter1"></feGaussianBlur>
            <feColorMatrix values="0 0 0 0 0   0 0 0 0 0   0 0 0 0 0  0 0 0 0.3 0" type="matrix" in="shadowBlurOuter1"></feColorMatrix>
        </filter>
    </defs>
    <g id="LMS-Styles" stroke="none" stroke-width="1" fill="none" fill-rule="evenodd">
        <g id="Masterclass-Sesson-Detail---Desktop" transform="translate(-1060.000000, -1078.000000)">
            <rect id="Rectangle-7" fill="#928880" opacity="0.7" x="0" y="0" width="1280" height="1627"></rect>
            <g id="Rectangle-Copy-4">
                <use fill="black" fill-opacity="1" filter="url(#filter-2)" xlink:href="#path-1"></use>
                <use fill="#FFFFFF" fill-rule="evenodd" xlink:href="#path-1"></use>
            </g>
            <path d="M1071.72605,1083.84694 L1071.72763,1083.84694 C1071.88158,1083.99529 1071.88158,1084.23847 1071.72763,1084.38759 L1067.78026,1088.21112 C1067.70289,1088.28606 1067.60184,1088.32353 1067.50079,1088.32353 C1067.39974,1088.32353 1067.29868,1088.28682 1067.22132,1088.21112 L1063.27395,1084.38759 C1063.12,1084.23924 1063.12,1083.99606 1063.27395,1083.84694 C1063.42789,1083.69859 1063.67816,1083.69859 1063.83211,1083.84694 L1067.10526,1087.01741 L1067.10526,1078.38235 C1067.10526,1078.17053 1067.28211,1078 1067.5,1078 C1067.71789,1078 1067.89474,1078.17053 1067.89474,1078.38235 L1067.89474,1087.01741 L1071.16789,1083.84694 C1071.32184,1083.69859 1071.57211,1083.69859 1071.72605,1083.84694 Z M1073.81579,1090.99962 L1061.18421,1090.99962 C1060.53132,1090.99962 1060,1090.48497 1060,1089.85256 L1060,1088.32315 C1060,1088.11209 1060.17684,1087.94079 1060.39474,1087.94079 C1060.61263,1087.94079 1060.78947,1088.11209 1060.78947,1088.32315 L1060.78947,1089.85256 C1060.78947,1090.06362 1060.96632,1090.23491 1061.18421,1090.23491 L1073.81579,1090.23491 C1074.03368,1090.23491 1074.21053,1090.06362 1074.21053,1089.85256 L1074.21053,1088.32315 C1074.21053,1088.11209 1074.38737,1087.94079 1074.60526,1087.94079 C1074.82316,1087.94079 1075,1088.11209 1075,1088.32315 L1075,1089.85256 C1075,1090.48497 1074.46868,1090.99962 1073.81579,1090.99962 Z" id="Combined-Shape" fill="#4D73A9"></path>
        </g>
    </g>
</svg>