<?xml version="1.0" encoding="UTF-8"?>
<svg width="10px" height="7px" viewBox="0 0 10 7" version="1.1" xmlns="http://www.w3.org/2000/svg" xmlns:xlink="http://www.w3.org/1999/xlink">
    <g id="Symbols" stroke="none" stroke-width="1" fill="none" fill-rule="evenodd">
        <g id="ASK-Journey-Base-Dropdown" transform="translate(-690.000000, -162.000000)">           
            <path d="M698.374893,165.953128 L696.492417,168.263988 C696.33367,168.457011 696.364337,168.742035 696.557359,168.898979 C696.642145,168.965725 696.741362,169 696.842383,169 C696.972268,169 697.103956,168.944078 697.19235,168.828625 L699.636601,165.828377 C699.712371,165.755871 699.762681,165.657129 699.773444,165.546745 C699.786044,165.430403 699.753091,165.309808 699.674585,165.213508 L697.19235,162.166636 C697.033602,161.97181 696.748578,161.94475 696.557359,162.101694 C696.364337,162.260442 696.335473,162.543662 696.492417,162.736685 L698.377833,165.051153 L690.450988,165.051153 C690.202042,165.051153 690,165.253195 690,165.50214 C690,165.751086 690.202042,165.953128 690.450988,165.953128 L698.374893,165.953128 Z" id="Combined-Shape" fill="#928880"></path>
        </g>
    </g>
</svg>