<?xml version="1.0" encoding="utf-8"?>
<!-- Generator: Adobe Illustrator 21.0.0, SVG Export Plug-In . SVG Version: 6.00 Build 0)  -->
<svg version="1.1" id="Layer_1" xmlns="http://www.w3.org/2000/svg" xmlns:xlink="http://www.w3.org/1999/xlink" x="0px" y="0px"
	 viewBox="0 0 21 15" style="enable-background:new 0 0 21 15;" xml:space="preserve">
<style type="text/css">
	.st0{fill:#928780;}
</style>
<g id="LMS-Styles">
	<g id="Masterclass-Discover-Module-Detail---Desktop" transform="translate(-165.000000, -93.000000)">
		<path id="Combined-Shape-Copy-2" class="st0" d="M167.9,101.4l4,5c0.3,0.4,0.3,1-0.1,1.4c-0.2,0.1-0.4,0.2-0.6,0.2
			c-0.3,0-0.6-0.1-0.7-0.4l-5.2-6.4c-0.2-0.2-0.3-0.4-0.3-0.6s0-0.5,0.2-0.7l5.3-6.5c0.3-0.4,1-0.5,1.4-0.1c0.4,0.3,0.5,0.9,0.1,1.4
			l-4,5h17c0.5,0,1,0.4,1,1s-0.4,1-1,1h-17.1V101.4z"/>
	</g>
</g>
</svg>
