<?xml version="1.0" encoding="UTF-8"?>
<svg width="18px" height="14px" viewBox="0 0 18 14" version="1.1" xmlns="http://www.w3.org/2000/svg" xmlns:xlink="http://www.w3.org/1999/xlink">
    <!-- Generator: Sketch 42 (36781) - http://www.bohemiancoding.com/sketch -->
    <title>Fill 190 Copy</title>
    <desc>Created with Sketch.</desc>
    <defs></defs>
    <g id="Symbols" stroke="none" stroke-width="1" fill="none" fill-rule="evenodd">
        <g id="Header" transform="translate(-1067.000000, -19.000000)" fill="#757575">
            <g id="Fill-190-Copy" transform="translate(1067.000000, 19.000000)">
                <path d="M2.47017647,7.57498824 L2.47017647,5.60263529 L15.6466471,2.67416471 L15.6466471,10.5034588 L2.47017647,7.57498824 Z M7.08029412,12.2452235 L4.94076471,11.7099294 L4.94076471,9.81087059 L8.33947059,10.5660471 L7.08029412,12.2452235 Z M15.6466471,0.000164705883 L15.6466471,0.987576471 L2.47017647,3.91522353 L2.47017647,3.29428235 L0.823117647,3.29428235 L0.823117647,9.88251765 L2.47017647,9.88251765 L2.47017647,9.2624 L3.29370588,9.44522353 L3.29370588,12.3531059 C3.29370588,12.7311059 3.55064706,13.0605176 3.91711765,13.1527529 L7.21123529,13.9762824 C7.27794118,13.9927529 7.34464706,14.0001647 7.41135294,14.0001647 C7.66664706,14.0001647 7.91205882,13.8815765 8.07017647,13.6707529 L10.1042941,10.9588706 L15.6466471,12.1900471 L15.6466471,13.1766353 L17.2937059,13.1766353 L17.2937059,0.000164705883 L15.6466471,0.000164705883 Z" id="Fill-190"></path>
            </g>
        </g>
    </g>
</svg>