<?xml version="1.0" encoding="UTF-8"?>
<svg width="9px" height="12px" viewBox="0 0 9 12" version="1.1" xmlns="http://www.w3.org/2000/svg" xmlns:xlink="http://www.w3.org/1999/xlink">    
    <g id="Symbols" stroke="none" stroke-width="1" fill="none" fill-rule="evenodd">
        <g id="ASK-Journey-Base-Dropdown" transform="translate(-966.000000, -160.000000)">           
            <path d="M971.1,168.7003 C971.1,169.1971 970.6968,169.6003 970.2,169.6003 C969.7032,169.6003 969.3,169.1971 969.3,168.7003 C969.3,168.2035 969.7032,167.8003 970.2,167.8003 C970.6968,167.8003 971.1,168.2035 971.1,168.7003" id="Fill-212" fill="#e6e4e5"></path>
            <path d="M967.2,170.8003 L967.2,166.6003 L973.2,166.6003 L973.2006,170.8003 L967.2,170.8003 Z M968.4,163.0003 C968.4,162.0079 969.2076,161.2003 970.2,161.2003 C971.1924,161.2003 972,162.0079 972,163.0003 L972,165.4003 L968.4,165.4003 L968.4,163.0003 Z M973.2,165.4003 L973.2,163.0003 C973.2,161.3461 971.8542,160.0003 970.2,160.0003 C968.5458,160.0003 967.2,161.3461 967.2,163.0003 L967.2,165.4003 C966.5382,165.4003 966,165.9379 966,166.6003 L966,170.8003 C966,171.4621 966.5382,172.0003 967.2,172.0003 L973.2,172.0003 C973.8618,172.0003 974.4,171.4621 974.4,170.8003 L974.4,166.6003 C974.4,165.9379 973.8618,165.4003 973.2,165.4003 L973.2,165.4003 Z" id="Fill-213" fill="#e6e4e5"></path>
        </g>
    </g>
</svg>