<?xml version="1.0" encoding="utf-8"?>
<!-- Generator: Adobe Illustrator 21.0.0, SVG Export Plug-In . SVG Version: 6.00 Build 0)  -->
<svg version="1.1" id="Layer_1" xmlns="http://www.w3.org/2000/svg" xmlns:xlink="http://www.w3.org/1999/xlink" x="0px" y="0px"
	 viewBox="0 0 21 15" style="enable-background:new 0 0 21 15;" xml:space="preserve">
<style type="text/css">
	.st0{fill:#928780;}
</style>
<g id="LMS-Styles">
	<g id="Masterclass-Discover-Module-Detail---Desktop" transform="translate(-165.000000, -93.000000)">
		<path id="Combined-Shape-Copy-2" class="st0" d="M183.1,99.6l-4-5c-0.3-0.4-0.3-1,0.1-1.4c0.2-0.1,0.4-0.2,0.6-0.2
			c0.3,0,0.6,0.1,0.7,0.4l5.2,6.4c0.2,0.2,0.3,0.4,0.3,0.6s0,0.5-0.2,0.7l-5.3,6.5c-0.3,0.4-1,0.5-1.4,0.1c-0.4-0.3-0.5-0.9-0.1-1.4
			l4-5h-17c-0.5,0-1-0.4-1-1s0.4-1,1-1h17.1V99.6z"/>
	</g>
</g>
</svg>
