<?xml version="1.0" encoding="UTF-8"?>
<svg width="31px" height="27px" viewBox="0 0 31 27" version="1.1" xmlns="http://www.w3.org/2000/svg" xmlns:xlink="http://www.w3.org/1999/xlink">
    <defs>
        <polygon id="path-1" points="30.9805439 26.9790536 30.9805439 0.0547364017 3.08349806e-05 0.0547364017 3.08349806e-05 26.9790536"></polygon>
    </defs>
    <g id="Symbols" stroke="none" stroke-width="1" fill="none" fill-rule="evenodd">
        <g id="Header-Courses" transform="translate(-18.000000, -11.000000)">
            <g id="Page-1" transform="translate(18.000000, 11.000000)">
                <g id="Group-3" transform="translate(0.000000, 0.074971)">
                    <mask id="mask-2" fill="white">
                        <use xlink:href="#path-1"></use>
                    </mask>
                    <g id="Clip-2"></g>
                    <path d="M0.0479527197,26.4477732 L15.1830866,0.231760669 C15.3192791,-0.00430627615 15.65989,-0.00430627615 15.7962121,0.231760669 L30.9326431,26.4481623 C31.0688356,26.6840996 30.8985301,26.9790536 30.6260155,26.9790536 L0.354580335,26.9786644 C0.0820656904,26.9786644 -0.088239749,26.6837105 0.0479527197,26.4477732" id="Fill-1" fill="#375477" mask="url(#mask-2)"></path>
                </g>
                <polygon id="Fill-4" fill="#375477" points="24.5531544 17.7229205 22.1003929 13.4748828 22.1002632 13.4748828 15.4897402 2.02563598 8.87973598 13.4746234 8.87960628 13.4746234 2.2697318 24.9238703 1.6898113 25.9287113 2.85004142 25.9287113 10.3401084 25.928841 12.660828 25.928841 29.2907067 25.9291004"></polygon>
                <polygon id="Fill-6" fill="#7AA2C7" points="15.4897791 4.34625188 9.8846159 14.0548293 15.4900385 17.2911515 21.0953314 14.054959"></polygon>
                <polygon id="Fill-8" fill="#4D73A5" points="9.30450084 15.0598778 4.27951757 23.7636142 5.25348828 23.2013339 14.3297435 17.9610368"></polygon>
                <polygon id="Fill-10" fill="#FFE100" points="4.85972343 24.7684033 12.3497904 24.7685331 23.548054 18.3030226 21.6754724 15.0600854 18.9867736 16.6124201"></polygon>
                <polygon id="Fill-12" fill="#375477" points="24.1282858 19.3082916 14.6705619 24.768572 27.2810766 24.7687017"></polygon>
                <path d="M18.9867477,16.6123682 L21.6754464,15.0600335 L23.5481577,18.3031004 L12.3497644,24.7684812 L4.85969749,24.7683515 L18.9867477,16.6123682 Z M9.30450084,15.0599038 L14.3297435,17.9609331 L5.25348828,23.2012301 L4.27951757,23.7636402 L9.30450084,15.0599038 Z M21.0952665,14.0549331 L15.4901033,17.2911255 L9.88468075,14.0548033 L15.4898439,4.34622594 L21.0952665,14.0549331 Z M24.1283377,19.3083305 L27.2809987,24.7687406 L14.6706138,24.7684812 L24.1283377,19.3083305 Z M24.5531285,17.7229205 L22.1003669,13.4748828 L22.1002372,13.4748828 L15.4897142,2.02563598 L8.87971004,13.4746234 L8.87958033,13.4746234 L2.26983556,24.9238703 L1.68978536,25.9287113 L2.85001548,25.9287113 L10.3402121,25.928841 L12.6608021,25.928841 L29.2906808,25.9291004 L24.5531285,17.7229205 Z" id="Fill-14" fill="#FFFFFF"></path>
            </g>
        </g>
    </g>
</svg>