<?xml version="1.0" encoding="UTF-8"?>
<svg width="100px" height="87px" viewBox="0 0 100 87" version="1.1" xmlns="http://www.w3.org/2000/svg" xmlns:xlink="http://www.w3.org/1999/xlink">
    <defs>
        <rect id="path-1" x="0" y="0" width="950" height="300"></rect>
        <polygon id="path-3" points="8.26446281e-05 85.9504132 99.5909091 85.9504132 99.5909091 0.174380165 8.26446281e-05 0.174380165 8.26446281e-05 85.9504132"></polygon>
        <polygon id="path-5" points="0.115302668 85.9504132 98.7644628 85.9504132 98.7644628 0.174380165 0.115302668 0.174380165"></polygon>
    </defs>
    <g id="LMS-Styles" stroke="none" stroke-width="1" fill="none" fill-rule="evenodd">
        <g id="Courses-Locked---Desktop" transform="translate(-590.000000, -1449.000000)">           
            <g id="Page-1" transform="translate(590.000000, 1449.000000)">
                <g id="Group-3" transform="translate(0.000000, 0.238843)">
                    <mask id="mask-4" fill="white">
                        <use xlink:href="#path-3"></use>
                    </mask>
                    <g id="Clip-2"></g>
                    <path d="M83.2773554,56.0604959 L74.3438843,40.5873554 L74.3434711,40.5873554 L51.3827273,0.818760331 C50.8864463,-0.0407438017 49.6459504,-0.0407438017 49.1496694,0.818760331 L26.1893388,40.5873554 L26.1885124,40.5873554 L2.11289256,82.2906612 L8.26446281e-05,85.9505785 L4.22570248,85.9505785 L31.5079339,85.9505785 L39.9604132,85.9505785 L98.2996694,85.9505785 C99.2922314,85.9505785 99.9124793,84.8757851 99.4161983,84.016281 L83.2773554,56.0604959 Z" id="Fill-1" fill="#375477" mask="url(#mask-4)"></path>
                </g>
                <polygon id="Fill-4" fill="#7AA2C7" points="50.2663223 7.57652893 29.8497934 42.9393388 50.2663223 54.7269421 70.6828512 42.9393388"></polygon>
                <polygon id="Fill-6" fill="#4D73A5" points="27.7363636 46.6002893 9.43305785 78.3031818 12.9805785 76.2548347 46.0396694 57.1668182"></polygon>
                <polygon id="Fill-8" fill="#FFB50D" points="11.5459917 81.9627686 38.8273967 81.9627686 79.6162397 58.4127686 72.7959917 46.6003719 63.0026033 52.2545041"></polygon>
                <polygon id="Fill-10" fill="#375477" points="81.7297934 62.0739669 47.2806198 81.9628099 93.2128512 81.9628099"></polygon>
                <g id="Group-14" transform="translate(0.826446, 0.238843)">
                    <mask id="mask-6" fill="white">
                        <use xlink:href="#path-5"></use>
                    </mask>
                    <g id="Clip-13"></g>
                    <path d="M62.1761157,52.0158264 L71.9695041,46.361281 L78.7901653,58.1736777 L38.0009091,81.7240909 L10.7195041,81.7240909 L62.1761157,52.0158264 Z M26.91,46.361281 L45.2133058,56.9282231 L12.1538017,76.0158264 L8.60628099,78.0641736 L26.91,46.361281 Z M69.856281,42.7005372 L49.4397521,54.4877273 L29.0232231,42.7005372 L49.4397521,7.33772727 L69.856281,42.7005372 Z M80.9033884,61.8352479 L92.3860331,81.7240909 L46.4542149,81.7240909 L80.9033884,61.8352479 Z M82.4509091,56.0604545 L73.517438,40.587314 L73.5170248,40.587314 L50.556281,0.819132231 C50.06,-0.040785124 48.8195041,-0.040785124 48.3232231,0.819132231 L25.3628926,40.587314 L25.3620661,40.587314 L1.28603306,82.2906198 L0.289752066,84.0162397 C-0.206115702,84.8757438 0.414132231,85.9505372 1.40669421,85.9505372 L3.3992562,85.9505372 L30.6814876,85.9505372 L39.1339669,85.9505372 L97.4732231,85.9505372 C98.4657851,85.9505372 99.0860331,84.8757438 98.5897521,84.0162397 L82.4509091,56.0604545 Z" id="Fill-12" fill="#FFFFFF" mask="url(#mask-6)"></path>
                </g>
            </g>
        </g>
    </g>
</svg>