<svg width="197px" height="138px" viewBox="0 0 197 138" version="1.1" xmlns="http://www.w3.org/2000/svg" xmlns:xlink="http://www.w3.org/1999/xlink">
    <g id="Page-1" stroke="none" stroke-width="1" fill="none" fill-rule="evenodd">
        <g id="Congratulation-Take-quiz" transform="translate(-551.000000, -212.000000)" fill-rule="nonzero">
            <g id="Group-5" transform="translate(551.000000, 212.000000)">
                <ellipse id="Oval" fill="#E3F2FB" cx="89.2912105" cy="53.8298237" rx="47.7855827" ry="47.6970606"></ellipse>
                <rect id="Rectangle-path" fill="#E3F2FB" x="49.0664872" y="93.0307414" width="88.0150611" height="15.188635" rx="7.59431752"></rect>
                <path d="M77.055933,95.1856288 L103.476143,95.1856288 C115.126216,95.1856288 124.570466,104.612383 124.570466,116.240874 L124.570466,128.069023 L55.9616106,128.069023 L55.9616106,116.240874 C55.9616106,104.612383 65.4058601,95.1856288 77.055933,95.1856288 L77.055933,95.1856288 Z" id="Shape" fill="#FFFF83"></path>
                <path d="M125.521517,129.018314 L55.0105589,129.018314 L55.0105589,116.240874 C55.0262778,104.09461 64.887126,94.2520286 77.055933,94.2363392 L103.476143,94.2363392 C115.64495,94.2520286 125.505799,104.09461 125.521517,116.240874 L125.521517,129.018314 Z M56.9126619,127.119734 L123.619414,127.119734 L123.619414,116.240874 C123.606312,105.142083 114.595533,96.1479959 103.476143,96.1349185 L77.055933,96.1349185 C65.9365431,96.1479959 56.9257635,105.142083 56.9126619,116.240874 L56.9126619,127.119734 Z" id="Shape" fill="#676F8D"></path>
                <ellipse id="Oval" fill="#E3F2FB" cx="144.884926" cy="100.625059" rx="3.52364581" ry="3.5171183"></ellipse>
                <path d="M82.8288154,85.9822653 L96.262418,85.9822653 L96.262418,97.6917538 C96.262418,101.395779 93.2541389,104.398485 89.5432391,104.398485 L89.5432391,104.398485 C85.8341964,104.395865 82.8288145,101.393927 82.8288154,97.6917538 L82.8288154,85.9822653 Z" id="Shape" fill="#EFC7B0"></path>
                <path d="M89.5527496,105.333535 C85.3224696,105.330941 81.8908602,101.914177 81.8777641,97.6917538 L81.8777641,85.0329757 L97.2134693,85.0329757 L97.2134693,97.6917538 C97.2004027,101.908631 93.7774603,105.323112 89.5527496,105.333535 Z M83.7798667,86.931555 L83.7798667,97.6917538 C83.8694737,100.805848 86.4244567,103.283903 89.5456165,103.283903 C92.6667763,103.283903 95.2217598,100.805848 95.3113663,97.6917538 L95.3113663,86.931555 L83.7798667,86.931555 Z" id="Shape" fill="#676F8D"></path>
                <rect id="Rectangle-path" fill="#E3F2FB" x="28.6188799" y="13.2049713" width="131.720633" height="15.188635" rx="7.59431752"></rect>
                <rect id="Rectangle-path" fill="#E3F2FB" x="14.2342259" y="38.6411885" width="131.720633" height="15.188635" rx="7.59431752"></rect>
                <rect id="Rectangle-path" fill="#E3F2FB" x="26.7167768" y="67.3144836" width="131.720633" height="15.188635" rx="7.59431752"></rect>
                <rect id="Rectangle-path" fill="#FFFFFF" x="36.2272918" y="28.3936063" width="15.9301127" height="10.2475822" rx="5.12379109"></rect>
                <rect id="Rectangle-path" fill="#FFFFFF" x="47.9965543" y="82.6407654" width="15.9301127" height="10.2475822" rx="5.12379109"></rect>
                <rect id="Rectangle-path" fill="#FFFFFF" x="111.835886" y="82.6407654" width="29.9391012" height="10.2475822" rx="5.12379109"></rect>
                <path d="M24.134672,53.8298237 L60.0749082,53.8298237 C63.8435861,53.8298237 66.8987026,56.8792807 66.8987026,60.6409769 L66.8987026,60.6409769 C66.8987026,64.4026735 63.8435861,67.4521306 60.0749082,67.4521306 L24.134672,67.4521306 L24.134672,53.8298237 Z" id="Shape" fill="#FFFFFF"></path>
                <path d="M124.570466,53.8345698 L160.510702,53.8345698 C164.27938,53.8345698 167.334497,56.8840273 167.334497,60.6457234 L167.334497,60.6457234 C167.334497,64.4074196 164.27938,67.4568771 160.510702,67.4568771 L124.570466,67.4568771 L124.570466,53.8345698 Z" id="Shape" fill="#FFFFFF" transform="translate(145.952481, 60.645723) rotate(180.000000) translate(-145.952481, -60.645723) "></path>
                <rect id="Rectangle-path" fill="#FFFFFF" x="125.38837" y="28.3936063" width="15.9301127" height="10.2475822" rx="5.12379109"></rect>
                <ellipse id="Oval" fill="#E3F2FB" cx="23.5830622" cy="16.7220896" rx="3.52364581" ry="3.5171183"></ellipse>
                <rect id="Rectangle-path" fill="#E3F2FB" x="153.049703" y="38.6411885" width="18.7024278" height="15.188635" rx="7.59431752"></rect>
                <rect id="Rectangle-path" fill="#E3F2FB" x="4.8806344" y="67.3144836" width="18.7024278" height="15.188635" rx="7.59431752"></rect>
                <path d="M66.8987026,39.4338454 L112.202041,39.4338454 L112.202041,68.4251525 C112.202041,80.8321966 102.125478,90.8900932 89.6954074,90.8900932 L89.4005813,90.8900932 C76.9705105,90.8900932 66.8939474,80.8321966 66.8939474,68.4251525 L66.8939474,39.4338454 L66.8987026,39.4338454 Z" id="Shape" fill="#F1DBCB"></path>
                <path d="M89.7001627,91.8393828 L89.4053365,91.8393828 C76.4554473,91.8263012 65.960757,81.3510523 65.9476513,68.4251525 L65.9476513,38.4845557 L113.153093,38.4845557 L113.153093,68.4251525 C113.139991,81.3492014 102.648195,91.8236857 89.7001627,91.8393828 L89.7001627,91.8393828 Z M67.8497544,40.3831351 L67.8497544,68.4251525 C67.8628578,80.3024966 77.5059491,89.9277238 89.4053365,89.9408031 L89.7001627,89.9408031 C101.59955,89.9277238 111.242641,80.3024966 111.255745,68.4251525 L111.255745,40.3831351 L67.8497544,40.3831351 Z" id="Shape" fill="#676F8D"></path>
                <path d="M67.0175843,52.1590737 C67.0175843,52.1590737 99.2582302,52.6004935 112.19253,39.3104377 L67.1364656,39.3104377 L67.0175843,52.1590737 Z" id="Shape" fill="#676F8D"></path>
                <polyline id="Shape" fill="#3FA9F5" points="66.8987026 29.385614 45.519065 24.5964476 90.2089752 1.96063494 134.898885 26.0203821 112.263859 30.5295082"></polyline>
                <path d="M112.449314,31.459812 L112.078404,29.5992042 L132.12657,25.6074411 L90.1994647,3.03807874 L48.3104013,24.2547033 L67.1126894,28.464803 L66.6942268,30.3159179 L45.3098337,25.5457373 C44.9166403,25.4595449 44.6204052,25.1355918 44.5702104,24.7369093 C44.5200156,24.3382268 44.7267353,23.9511853 45.0863366,23.7705656 L89.7857573,1.13475292 C90.0613749,0.99124472 90.3898621,0.99124472 90.6654797,1.13475292 L135.3649,25.1945001 C135.717213,25.3848704 135.912229,25.7751993 135.852592,26.1706259 C135.792955,26.5660526 135.491454,26.8817755 135.098606,26.9601789 L112.449314,31.459812 Z" id="Shape" fill="#676F8D"></path>
                <path d="M112.263859,37.9719393 L66.9605211,37.9719393 L66.9605211,23.0158802 L76.171455,18.9576668 C84.5285841,15.2875493 94.0359998,15.23943 102.429987,18.8247663 L112.244838,23.0158802 L112.263859,37.9719393 Z" id="Shape" fill="#3FA9F5"></path>
                <path d="M113.214911,38.921229 L66.0094698,38.921229 L66.0094698,22.3940955 L75.8100556,18.0890668 C84.4107454,14.3273214 94.1859554,14.277514 102.824673,17.9514198 L113.214911,22.3893491 L113.214911,38.921229 Z M67.9115724,37.0226496 L111.312808,37.0226496 L111.312808,23.6471579 L102.078098,19.7028592 C93.9225511,16.2354579 84.6944813,16.283548 76.5756519,19.8357598 L67.9115724,23.6329185 L67.9115724,37.0226496 Z" id="Shape" fill="#676F8D"></path>
                <ellipse id="Oval" fill="#676F8D" cx="80.0945423" cy="59.4828438" rx="2.13986588" ry="2.1359018"></ellipse>
                <ellipse id="Oval" fill="#676F8D" cx="99.315293" cy="59.4828438" rx="2.13986588" ry="2.1359018"></ellipse>
                <polyline id="Shape" fill="#F1DBCB" points="92.5770932 58.1965563 92.5770932 67.4521306 89.6050576 67.4521306"></polyline>
                <path d="M93.5281449,68.4014202 L89.6050576,68.4014202 C89.0798062,68.4014202 88.6540058,67.9764086 88.6540058,67.4521306 C88.6540058,66.9278525 89.0798062,66.5028409 89.6050576,66.5028409 L91.6260419,66.5028409 L91.6260419,58.1965563 C91.6260419,57.6722778 92.0518423,57.2472662 92.5770932,57.2472662 C93.1023446,57.2472662 93.5281449,57.6722778 93.5281449,58.1965563 L93.5281449,68.4014202 Z" id="Shape" fill="#676F8D"></path>
                <path d="M82.2344083,76.5700579 C82.2344083,76.5700579 85.9197327,80.6045392 92.5770932,79.892572" id="Shape" fill="#F1DBCB"></path>
                <path d="M91.0031029,80.9272978 C85.001968,80.9272978 81.6827983,77.3722078 81.53063,77.2108285 C81.3012799,76.956467 81.2253035,76.5992973 81.3313209,76.2738617 C81.4373383,75.9484256 81.7092423,75.7041656 82.0446097,75.633091 C82.3799767,75.5620165 82.727857,75.6749261 82.9572076,75.9292876 C83.1046202,76.0859204 86.4428109,79.5982923 92.501009,78.9480289 C93.0262604,78.891669 93.4978341,79.2709916 93.5542985,79.7952696 C93.6107633,80.3195481 93.2307363,80.7902482 92.7054853,80.8466082 C92.1398959,80.9041079 91.5716061,80.9310435 91.0031029,80.9272978 L91.0031029,80.9272978 Z" id="Shape" fill="#676F8D"></path>
                <path d="M85.9339984,82.9777633 C84.9976446,82.9698702 84.0938299,82.6338773 83.3804255,82.0284736 C83.0797189,81.7741988 83.0424613,81.3247493 83.2972082,81.0245997 C83.5519552,80.7244507 84.0022388,80.6872622 84.3029454,80.941537 C84.8319535,81.3839329 85.5190722,81.5914015 86.2050484,81.5158573 C86.5989865,81.4726041 86.9534653,81.7562996 86.9967988,82.1495083 C87.0401318,82.5427167 86.7559101,82.896539 86.3619715,82.9397917 C86.2201626,82.9606403 86.0772684,82.9733184 85.9339984,82.9777633 Z" id="Shape" fill="#676F8D"></path>
                <path d="M65.8668119,53.7064159 L66.8987026,53.7064159 L66.8987026,64.3052354 L65.8668119,64.3052354 C62.9332835,64.3052354 60.5551893,61.931546 60.5551893,59.0034524 L60.5551893,59.0034524 C60.557814,56.0772124 62.9351396,53.7064145 65.8668119,53.7064159 Z" id="Shape" fill="#EFC7B0"></path>
                <path d="M67.8497544,65.2592716 L65.8668119,65.2592716 C63.5890842,65.3219369 61.4569877,64.1448368 60.2996136,62.1857021 C59.14224,60.226567 59.14224,57.794577 60.2996136,55.8354423 C61.4569877,53.8763072 63.5890842,52.6992071 65.8668119,52.7618729 L67.8497544,52.7618729 L67.8497544,65.2592716 Z M65.8668119,54.6604521 C64.2754481,54.6079763 62.7819434,55.4254365 61.9706968,56.7929643 C61.1594501,58.1604925 61.1594501,59.8606515 61.9706968,61.2281797 C62.7819434,62.5957075 64.2754481,63.4131677 65.8668119,63.3606919 L65.9476513,63.3606919 L65.9476513,54.6557055 L65.8668119,54.6604521 Z" id="Shape" fill="#676F8D"></path>
                <path d="M118.255483,53.7111625 L119.287374,53.7111625 L119.287374,64.3099815 L118.255483,64.3099815 C115.321955,64.3099815 112.943861,61.9362926 112.943861,59.0081989 L112.943861,59.0081989 C112.946485,56.0819589 115.323811,53.7111611 118.255483,53.7111625 L118.255483,53.7111625 Z" id="Shape" fill="#EFC7B0" transform="translate(116.115617, 59.010572) rotate(180.000000) translate(-116.115617, -59.010572) "></path>
                <path d="M113.975752,65.2592716 L111.99281,65.2592716 L111.99281,52.7571263 L113.975752,52.7571263 C116.25348,52.694461 118.385576,53.8715607 119.54295,55.8306958 C120.700324,57.7898309 120.700324,60.2218205 119.54295,62.1809556 C118.385576,64.1400907 116.25348,65.3171903 113.975752,65.254525 L113.975752,65.2592716 Z M113.894913,63.3606919 L113.975752,63.3606919 C115.567116,63.4131677 117.060621,62.5957075 117.871867,61.2281797 C118.683114,59.8606515 118.683114,58.1604925 117.871867,56.7929643 C117.060621,55.4254365 115.567116,54.6079763 113.975752,54.6604521 L113.894913,54.6604521 L113.894913,63.3606919 Z" id="Shape" fill="#676F8D"></path>
                <path d="M111.888194,29.2669528 C88.6349849,19.2994111 67.6405228,29.1482916 67.4312917,29.2669528 L66.6038769,27.5582314 C66.8226185,27.4538095 88.5969426,17.2394525 112.639525,27.5582314 L111.888194,29.2669528 Z" id="Shape" fill="#676F8D"></path>
                <rect id="Rectangle-path" fill="#676F8D" x="120.552273" y="28.6878861" width="1.902103" height="17.0492428"></rect>
                <path d="M125.521517,45.737129 L123.619414,45.737129 L123.619414,41.1662991 C123.619414,39.9276918 122.613461,38.9236022 121.372555,38.9236022 C120.131649,38.9236022 119.125696,39.9276918 119.125696,41.1662991 L119.125696,45.737129 L117.223593,45.737129 L117.223593,41.1662991 C117.223593,38.8791354 119.081147,37.0250228 121.372555,37.0250228 C123.663964,37.0250228 125.521517,38.8791354 125.521517,41.1662991 L125.521517,45.737129 Z" id="Shape" fill="#676F8D"></path>
                <rect id="Rectangle-path" fill="#676F8D" x="66.0665326" y="115.09698" width="1.902103" height="12.9720436"></rect>
                <rect id="Rectangle-path" fill="#676F8D" x="111.99281" y="115.09698" width="1.902103" height="12.9720436"></rect>
                <path d="M139.097777,129.018314 L44.1923482,129.018314 C43.6670969,129.018314 43.2412967,128.593302 43.2412967,128.069023 C43.2412967,127.544745 43.6670969,127.119734 44.1923482,127.119734 L139.097777,127.119734 C139.623029,127.119734 140.048829,127.544745 140.048829,128.069023 C140.048829,128.593302 139.623029,129.018314 139.097777,129.018314 Z" id="Shape" fill="#676F8D"></path>
                <path d="M112.943861,137.841961 L63.926667,137.841961 C63.4014157,137.841961 62.9756153,137.41695 62.9756153,136.892671 C62.9756153,136.368393 63.4014157,135.943381 63.926667,135.943381 L112.943861,135.943381 C113.469112,135.943381 113.894913,136.368393 113.894913,136.892671 C113.894913,137.41695 113.469112,137.841961 112.943861,137.841961 Z" id="Shape" fill="#676F8D"></path>
                <path d="M151.1476,129.018314 L145.954859,129.018314 C145.429608,129.018314 145.003807,128.593302 145.003807,128.069023 C145.003807,127.544745 145.429608,127.119734 145.954859,127.119734 L151.1476,127.119734 C151.672851,127.119734 152.098651,127.544745 152.098651,128.069023 C152.098651,128.593302 151.672851,129.018314 151.1476,129.018314 Z" id="Shape" fill="#676F8D"></path>
                <path d="M59.2902909,137.841961 L55.9616106,137.841961 C55.4363593,137.841961 55.0105589,137.41695 55.0105589,136.892671 C55.0105589,136.368393 55.4363593,135.943381 55.9616106,135.943381 L59.2902909,135.943381 C59.8155418,135.943381 60.2413422,136.368393 60.2413422,136.892671 C60.2413422,137.41695 59.8155418,137.841961 59.2902909,137.841961 Z" id="Shape" fill="#676F8D"></path>
                <polygon id="Shape" fill="#FFFFFF" points="29.4510499 59.8910381 1.32845703 59.8910381 1.32845703 20.1727576 23.8636224 20.1727576 27.0163581 23.4715393 29.4510499 26.0203821"></polygon>
                <path d="M29.4510499,60.8403277 L1.32845703,60.8403277 C0.803205789,60.8403277 0.377405531,60.4153166 0.377405531,59.8910381 L0.377405531,20.1727576 C0.377405531,19.6484794 0.803205789,19.2234679 1.32845703,19.2234679 L23.8636224,19.2234679 C24.1241391,19.2231585 24.3733781,19.3295323 24.5531347,19.5177477 L30.1405623,25.3653722 C30.3087604,25.5420948 30.4024068,25.7766268 30.4021014,26.0203821 L30.4021014,59.8910381 C30.4021014,60.4153166 29.9763012,60.8403277 29.4510499,60.8403277 Z M2.27950853,58.9417485 L28.4999984,58.9417485 L28.4999984,26.400098 L23.4594255,21.1220473 L2.27950853,21.1220473 L2.27950853,58.9417485 Z" id="Shape" fill="#676F8D"></path>
                <polygon id="Shape" fill="#FFFFFF" points="23.8636224 20.324644 23.8636224 26.0203821 29.5699313 26.0203821"></polygon>
                <path d="M29.5699313,26.9696718 L23.8636224,26.9696718 C23.3383711,26.9696718 22.9125708,26.5446603 22.9125708,26.0203821 L22.9125708,20.324644 C22.9141807,19.9419324 23.1458761,19.5976161 23.5002054,19.451376 C23.8545347,19.3051358 24.2621891,19.3855774 24.5341136,19.6553947 L30.2404227,25.3511329 C30.5107408,25.6225538 30.5913316,26.0294529 30.4448201,26.3831259 C30.2983085,26.7367988 29.9533532,26.9680649 29.5699313,26.9696718 Z M24.8146738,25.0710924 L27.273142,25.0710924 L24.8146738,22.6171786 L24.8146738,25.0710924 Z" id="Shape" fill="#676F8D"></path>
                <rect id="Rectangle-path" fill="#676F8D" x="6.90161883" y="28.3936063" width="9.35359149" height="1.89857938"></rect>
                <rect id="Rectangle-path" fill="#676F8D" x="6.90161883" y="32.5087771" width="16.324799" height="1.89857938"></rect>
                <rect id="Rectangle-path" fill="#676F8D" x="6.90161883" y="36.6192015" width="16.324799" height="1.89857938"></rect>
                <rect id="Rectangle-path" fill="#676F8D" x="6.90161883" y="40.7343723" width="16.324799" height="1.89857938"></rect>
                <rect id="Rectangle-path" fill="#676F8D" x="6.90161883" y="44.8495431" width="16.324799" height="1.89857938"></rect>
                <rect id="Rectangle-path" fill="#676F8D" x="6.90161883" y="48.9599673" width="16.324799" height="1.89857938"></rect>
                <path d="M32.8986116,65.4159043 L6.74469533,65.4159043 C6.21944409,65.4159043 5.79364385,64.9908928 5.79364385,64.4666147 L5.79364385,59.7201662 L7.69574681,59.7201662 L7.69574681,63.5173246 L31.9475601,63.5173246 L31.9475601,30.2921857 L29.5699313,30.2921857 L29.5699313,28.3936063 L32.8986116,28.3936063 C33.4238629,28.3936063 33.8496631,28.8186178 33.8496631,29.342896 L33.8496631,64.4666147 C33.8496631,64.9908928 33.4238629,65.4159043 32.8986116,65.4159043 Z" id="Shape" fill="#676F8D"></path>
                <rect id="Rectangle-path" fill="#FFFFFF" x="133.353426" y="78.2740328" width="42.2029104" height="26.1102129"></rect>
                <path d="M175.556337,105.333535 L133.353426,105.333535 C132.828175,105.333535 132.402375,104.908524 132.402375,104.384246 L132.402375,78.2787794 C132.402375,77.7545013 132.828175,77.3294897 133.353426,77.3294897 L175.556337,77.3294897 C176.081588,77.3294897 176.507388,77.7545013 176.507388,78.2787794 L176.507388,104.384246 C176.507388,104.908524 176.081588,105.333535 175.556337,105.333535 Z M134.304478,103.434956 L174.605285,103.434956 L174.605285,79.228069 L134.304478,79.228069 L134.304478,103.434956 Z" id="Shape" fill="#676F8D"></path>
                <rect id="Rectangle-path" fill="#676F8D" x="133.353426" y="98.1426662" width="42.2029104" height="5.99951085"></rect>
                <polygon id="Shape" fill="#FFFFFF" points="136.563225 100.064978 136.563225 102.438202 138.78393 101.142422"></polygon>
                <polygon id="Shape" fill="#3FA9F5" points="152.255575 85.8636041 152.255575 91.958044 157.952374 88.6307833"></polygon>
                <rect id="Rectangle-path" fill="#FFFFFF" x="141.950932" y="100.150414" width="27.1858072" height="1.8131433"></rect>
                <g id="Group" transform="translate(10.762500, 0.000000)">
                    <polygon id="Fill-1" fill="#1B75BB" transform="translate(149.385735, 36.938418) rotate(15.000000) translate(-149.385735, -36.938418) " points="151.117105 36.0792534 151.941133 38.8695007 148.137483 39.0606922 146.830337 34.8161429"></polygon>
                    <polygon id="Fill-2" fill="#1B75BB" transform="translate(118.575443, 35.422380) rotate(15.000000) translate(-118.575443, -35.422380) " points="119.466983 37.148375 116.686545 37.9984348 116.460069 34.1923322 120.690817 32.8463243"></polygon>
                    <polygon id="Fill-3" fill="#23BBB8" transform="translate(154.420729, 26.948709) rotate(15.000000) translate(-154.420729, -26.948709) " points="155.469318 26.6480255 154.346035 28.0400345 153.372139 27.3864372 153.580421 25.8573836"></polygon>
                    <polygon id="Fill-4" fill="#23BBB8" transform="translate(129.892001, 66.105297) rotate(15.000000) translate(-129.892001, -66.105297) " points="130.94083 65.8038946 129.817546 67.1959034 128.843172 66.5427851 129.051932 65.01469"></polygon>
                    <polygon id="Fill-5" fill="#23BBB8" transform="translate(138.192174, 30.024342) rotate(15.000000) translate(-138.192174, -30.024342) " points="139.240763 29.7229392 138.11748 31.1154274 137.143584 30.4608717 137.351387 28.9332556"></polygon>
                    <polygon id="Fill-6" fill="#23BBB8" transform="translate(107.440458, 48.585480) rotate(15.000000) translate(-107.440458, -48.585480) " points="106.392108 49.0229683 107.365046 49.6765656 108.488808 48.2840773 106.599911 47.4943936"></polygon>
                    <polygon id="Fill-7" fill="#23BBB8" transform="translate(176.947381, 50.084422) rotate(15.000000) translate(-176.947381, -50.084422) " points="177.995971 49.7830197 176.872687 51.1755079 175.898792 50.5214314 176.106594 48.9933361"></polygon>
                    <polygon id="Fill-8" fill="#23BBB8" transform="translate(125.333542, 25.264254) rotate(15.000000) translate(-125.333542, -25.264254) " points="126.382371 24.963331 125.258609 26.3553401 124.284713 25.7017427 124.493473 24.1731683"></polygon>
                    <polygon id="Fill-9" fill="#23BBB8" transform="translate(162.850326, 28.584725) rotate(15.000000) translate(-162.850326, -28.584725) " points="163.898676 28.2835628 162.775872 29.6755718 161.801976 29.0214952 162.010258 27.4938792"></polygon>
                    <polygon id="Fill-10" fill="#23BBB8" transform="translate(163.201214, 10.286184) rotate(15.000000) translate(-163.201214, -10.286184) " points="164.249564 9.98430214 163.12628 11.3767903 162.152864 10.723193 162.360666 9.19557689"></polygon>
                    <polygon id="Fill-11" fill="#EC008B" transform="translate(185.054762, 33.247945) rotate(15.000000) translate(-185.054762, -33.247945) " points="183.745223 32.8581342 184.962831 33.8826145 186.364302 33.3631867 185.431106 32.6132748"></polygon>
                    <polygon id="Fill-12" fill="#EC008B" transform="translate(169.986420, 60.474972) rotate(15.000000) translate(-169.986420, -60.474972) " points="170.659624 60.6038703 170.38 61.7677912 169.313216 60.7212689 169.718287 59.1821526"></polygon>
                    <polygon id="Fill-13" fill="#EC008B" transform="translate(142.819250, 23.447696) rotate(15.000000) translate(-142.819250, -23.447696) " points="143.492693 23.5777929 143.212591 24.7407553 142.145806 23.6942329 142.551835 22.1546374"></polygon>
                    <polygon id="Fill-14" fill="#EC008B" transform="translate(126.246072, 44.773742) rotate(15.000000) translate(-126.246072, -44.773742) " points="126.921191 44.9761935 126.502713 46.0974678 125.570953 44.928755 126.158929 43.4500153"></polygon>
                    <polygon id="Fill-15" fill="#EC008B" transform="translate(159.063117, 63.106848) rotate(15.000000) translate(-159.063117, -63.106848) " points="158.445694 62.6981101 159.251528 61.814508 159.68054 63.2467678 158.583112 64.3991884"></polygon>
                    <polygon id="Fill-16" fill="#FFD200" transform="translate(151.306010, 67.321417) rotate(15.000000) translate(-151.306010, -67.321417) " points="152.568388 67.1077041 151.809477 68.8370541 150.043633 67.8791791 150.977308 65.8057804"></polygon>
                    <polygon id="Fill-17" fill="#FFD200" transform="translate(129.352669, 53.778114) rotate(15.000000) translate(-129.352669, -53.778114) " points="129.477399 52.4572623 130.923399 53.6714968 129.509 55.0989651 127.78194 53.6207041"></polygon>
                    <polygon id="Fill-18" fill="#FFD200" transform="translate(134.775016, 16.641911) rotate(15.000000) translate(-134.775016, -16.641911) " points="136.037633 16.4284374 135.278722 18.1577869 133.5124 17.199433 134.446554 15.1260344"></polygon>
                    <polygon id="Fill-19" fill="#FFD200" transform="translate(130.332129, 26.591159) rotate(15.000000) translate(-130.332129, -26.591159) " points="131.594267 26.3769673 130.835835 28.106796 129.069991 27.147963 130.003667 25.0755228"></polygon>
                    <polygon id="Fill-20" fill="#FFD200" transform="translate(177.003052, 34.880917) rotate(15.000000) translate(-177.003052, -34.880917) " points="178.26519 34.6674434 177.506758 36.3967929 175.740913 35.4384391 176.673632 33.3650404"></polygon>
                    <polygon id="Fill-21" fill="#1B75BB" transform="translate(163.962026, 45.596688) rotate(15.000000) translate(-163.962026, -45.596688) " points="164.132481 46.8892682 162.131064 46.8974142 162.736277 44.3429219 165.792988 44.2959626"></polygon>
                    <polygon id="Fill-22" fill="#1B75BB" transform="translate(141.287506, 58.384643) rotate(15.000000) translate(-141.287506, -58.384643) " points="141.458919 59.6762645 139.456544 59.6853689 140.062715 57.1303974 143.118468 57.0839171"></polygon>
                    <polygon id="Fill-23" fill="#1B75BB" transform="translate(122.401448, 64.963561) rotate(15.000000) translate(-122.401448, -64.963561) " points="120.547504 66.2216402 122.5494 66.2484741 124.255393 63.685357 121.199161 63.6786482"></polygon>
                    <polygon id="Fill-24" fill="#1B75BB" transform="translate(117.615853, 51.144777) rotate(15.000000) translate(-117.615853, -51.144777) " points="116.587612 50.3898335 117.87417 49.4731678 118.644093 51.3965843 116.694865 52.8163856"></polygon>
                    <polygon id="Fill-25" fill="#1B75BB" transform="translate(161.215357, 2.018703) rotate(15.000000) translate(-161.215357, -2.018703) " points="160.245771 0.534692137 160.191665 2.11310097 162.183028 3.50271408 162.239048 1.09053738"></polygon>
                    <polygon id="Fill-26" fill="#23BBB8" transform="translate(140.167551, 49.092359) rotate(15.000000) translate(-140.167551, -49.092359) " points="142.277419 48.4854818 140.016966 51.2872293 138.057684 49.9723676 138.476641 46.8974892"></polygon>
                    <polygon id="Fill-27" fill="#EC008B" transform="translate(153.524297, 53.778192) rotate(15.000000) translate(-153.524297, -53.778192) " points="154.991844 54.0518016 154.204204 56.3662261 152.05675 54.2592852 153.096721 51.190157"></polygon>
                    <polygon id="Fill-28" fill="#EC008B" transform="translate(140.681534, 9.617242) rotate(15.000000) translate(-140.681534, -9.617242) " points="141.736348 7.91568475 143.883801 10.088273 140.332961 11.3187994 137.479266 8.44277942"></polygon>
                    <polygon id="Fill-29" fill="#FFD200" transform="translate(139.982201, 68.219075) rotate(15.000000) translate(-139.982201, -68.219075) " points="137.441645 69.340589 140.995359 71.2702342 142.522756 67.7890142 139.320488 65.167916"></polygon>
                    <polygon id="Fill-1" fill="#1B75BB" transform="translate(22.331273, 89.373639) rotate(-20.000000) translate(-22.331273, -89.373639) " points="23.6514427 88.7160069 24.2797645 90.8517518 21.3794807 90.998096 20.382782 87.7491817"></polygon>
                    <polygon id="Fill-2" fill="#1B75BB" transform="translate(2.429973, 101.907992) rotate(-20.000000) translate(-2.429973, -101.907992) " points="3.10977282 103.229125 0.989688736 103.879788 0.817000653 100.966475 4.04294572 99.9361971"></polygon>
                    <polygon id="Fill-3" fill="#23BBB8" transform="translate(21.092377, 80.903687) rotate(-20.000000) translate(-21.092377, -80.903687) " points="21.8919263 80.6735344 21.0354226 81.7390227 20.2928273 81.2387383 20.4516419 80.0683516"></polygon>
                    <polygon id="Fill-4" fill="#23BBB8" transform="translate(22.955928, 116.201180) rotate(-20.000000) translate(-22.955928, -116.201180) " points="23.7556598 115.970477 22.899156 117.035965 22.1561956 116.536047 22.3153753 115.366394"></polygon>
                    <polygon id="Fill-5" fill="#23BBB8" transform="translate(12.309451, 89.935975) rotate(-20.000000) translate(-12.309451, -89.935975) " points="13.1090007 89.7052724 12.252497 90.7711276 11.5099016 90.2701096 11.6683511 89.1008233"></polygon>
                    <polygon id="Fill-6" fill="#23BBB8" transform="translate(1.252538, 115.038397) rotate(-20.000000) translate(-1.252538, -115.038397) " points="0.453170654 115.373265 1.19503579 115.873549 2.05190463 114.807694 0.611620196 114.203245"></polygon>
                    <polygon id="Fill-7" fill="#23BBB8" transform="translate(45.306343, 85.556249) rotate(-20.000000) translate(-45.306343, -85.556249) " points="46.1058922 85.3255459 45.2493885 86.3914011 44.5067933 85.8907499 44.6652425 84.7210968"></polygon>
                    <polygon id="Fill-8" fill="#23BBB8" transform="translate(2.193003, 92.578215) rotate(-20.000000) translate(-2.193003, -92.578215) " points="2.99273512 92.3478792 2.13586626 93.4133676 1.39327094 92.9130832 1.55245069 91.7430632"></polygon>
                    <polygon id="Fill-9" fill="#23BBB8" transform="translate(27.073061, 78.240365) rotate(-20.000000) translate(-27.073061, -78.240365) " points="27.8724284 78.0098451 27.0162898 79.0753334 26.2736944 78.5746823 26.4325091 77.4053959"></polygon>
                    <polygon id="Fill-10" fill="#23BBB8" transform="translate(19.264604, 66.608754) rotate(-20.000000) translate(-19.264604, -66.608754) " points="20.0639713 66.3776839 19.2074675 67.4435391 18.4652373 66.9432547 18.6236869 65.7739683"></polygon>
                    <polygon id="Fill-11" fill="#EC008B" transform="translate(42.986867, 71.460158) rotate(-20.000000) translate(-42.986867, -71.460158) " points="41.9883432 71.1475813 42.9167696 71.9317514 43.9853916 71.5341647 43.2738291 70.9601581"></polygon>
                    <polygon id="Fill-12" fill="#EC008B" transform="translate(45.518621, 95.120608) rotate(-20.000000) translate(-45.518621, -95.120608) " points="46.0319393 95.2192713 45.8187261 96.1101736 45.005303 95.3091317 45.3141701 94.1310427"></polygon>
                    <polygon id="Fill-13" fill="#EC008B" transform="translate(12.313178, 83.785459) rotate(-20.000000) translate(-12.313178, -83.785459) " points="12.8266782 83.8850392 12.6130999 84.775208 11.7996769 83.9741661 12.1092742 82.7957103"></polygon>
                    <polygon id="Fill-14" fill="#EC008B" transform="translate(11.321506, 104.416427) rotate(-20.000000) translate(-11.321506, -104.416427) " points="11.8362848 104.57139 11.5171951 105.429649 10.8067278 104.535079 11.2550597 103.403204"></polygon>
                    <polygon id="Fill-15" fill="#EC008B" transform="translate(39.880776, 101.542504) rotate(-20.000000) translate(-39.880776, -101.542504) " points="39.3807756 101.229643 39.995224 100.553305 40.3223456 101.649603 39.4855568 102.531702"></polygon>
                    <polygon id="Fill-16" fill="#FFD200" transform="translate(36.859143, 107.591343) rotate(-20.000000) translate(-36.859143, -107.591343) " points="37.8217053 107.427761 37.2430359 108.75146 35.8965799 108.018272 36.6085076 106.431226"></polygon>
                    <polygon id="Fill-17" fill="#FFD200" transform="translate(17.211290, 108.704831) rotate(-20.000000) translate(-17.211290, -108.704831) " points="17.3063965 107.693809 18.4089716 108.623223 17.3304925 109.715852 16.0136089 108.584344"></polygon>
                    <polygon id="Fill-18" fill="#FFD200" transform="translate(4.305126, 83.037298) rotate(-20.000000) translate(-4.305126, -83.037298) " points="5.26787126 82.8738984 4.68920183 84.1975981 3.34238071 83.4640433 4.05467346 81.8769974"></polygon>
                    <polygon id="Fill-19" fill="#FFD200" transform="translate(5.895951, 91.222712) rotate(-20.000000) translate(-5.895951, -91.222712) " points="6.8583311 91.0587626 6.28002679 92.3828291 4.93357074 91.6489075 5.64549842 90.0625952"></polygon>
                    <polygon id="Fill-20" fill="#FFD200" transform="translate(38.671354, 75.995259) rotate(-20.000000) translate(-38.671354, -75.995259) " points="39.6337347 75.8318593 39.0554301 77.155559 37.7089742 76.4220041 38.420172 74.8349583"></polygon>
                    <polygon id="Fill-21" fill="#1B75BB" transform="translate(35.230256, 88.424792) rotate(-20.000000) translate(-35.230256, -88.424792) " points="35.3602287 89.4141745 33.8341478 89.4204097 34.295623 87.4651194 36.6263646 87.4291752"></polygon>
                    <polygon id="Fill-22" fill="#1B75BB" transform="translate(26.683607, 106.370603) rotate(-20.000000) translate(-26.683607, -106.370603) " points="26.8143095 107.359252 25.2874985 107.366221 25.7497038 105.410564 28.0797153 105.374986"></polygon>
                    <polygon id="Fill-23" fill="#1B75BB" transform="translate(17.778370, 118.763538) rotate(-20.000000) translate(-17.778370, -118.763538) " points="16.3647372 119.726512 17.8911832 119.747052 19.1920028 117.785159 16.8616262 117.780024"></polygon>
                    <polygon id="Fill-24" fill="#1B75BB" transform="translate(8.728241, 112.190101) rotate(-20.000000) translate(-8.728241, -112.190101) " points="7.94420799 111.612243 8.92520779 110.910598 9.51227429 112.382842 8.02598838 113.469604"></polygon>
                    <polygon id="Fill-25" fill="#1B75BB" transform="translate(14.397821, 62.292041) rotate(-20.000000) translate(-14.397821, -62.292041) " points="13.6585111 61.1561311 13.6172558 62.3642959 15.1356697 63.4279504 15.1783854 61.5815929"></polygon>
                    <polygon id="Fill-26" fill="#23BBB8" transform="translate(21.907865, 101.032072) rotate(-20.000000) translate(-21.907865, -101.032072) " points="23.5166391 100.567548 21.7930439 102.712096 20.2990911 101.705659 20.6185458 99.3520482"></polygon>
                    <polygon id="Fill-27" fill="#EC008B" transform="translate(32.302732, 98.125236) rotate(-20.000000) translate(-32.302732, -98.125236) " points="33.4217364 98.3346655 32.8211615 100.1062 31.1837279 98.4934801 31.9767057 96.1442708"></polygon>
                    <polygon id="Fill-28" fill="#EC008B" transform="translate(4.911117, 76.045756) rotate(-20.000000) translate(-4.911117, -76.045756) " points="5.7154123 74.743329 7.35284597 76.4062978 4.64533027 77.3481821 2.46938724 75.1467841"></polygon>
                    <polygon id="Fill-29" fill="#FFD200" transform="translate(30.182992, 113.110714) rotate(-20.000000) translate(-30.182992, -113.110714) " points="28.2458188 113.969156 30.9555251 115.446169 32.1201657 112.781531 29.6784363 110.775259"></polygon>
                </g>
            </g>
        </g>
    </g>
</svg>