<svg width="243px" height="180px" viewBox="0 0 243 180" version="1.1" xmlns="http://www.w3.org/2000/svg" xmlns:xlink="http://www.w3.org/1999/xlink">
    <g id="Page-1" stroke="none" stroke-width="1" fill="none" fill-rule="evenodd">
        <g id="Congratulation-Page-Copy" transform="translate(-513.000000, -158.000000)" fill-rule="nonzero">
            <g id="Group-5" transform="translate(513.000000, 158.000000)">
                <ellipse id="Oval" fill="#E3F2FB" cx="122.878124" cy="70.4043084" rx="69.5063021" ry="69.4718056"></ellipse>
                <rect id="Rectangle-path" fill="#E3F2FB" x="64.369436" y="126.501297" width="128.021907" height="22.1225771" rx="11.0612886"></rect>
                <path d="M105.081357,130.639938 L143.510754,130.639938 C160.456314,130.639938 174.193405,144.37021 174.193405,161.30736 L174.193405,178.535317 L74.3987064,178.535317 L74.3987064,161.30736 C74.3987064,144.37021 88.1357965,130.639938 105.081357,130.639938 L105.081357,130.639938 Z" id="Shape" fill="#FFFF83"></path>
                <path d="M175.576753,179.917978 L73.0153584,179.917978 L73.0153584,161.30736 C73.0382223,143.616062 87.3812742,129.280129 105.081357,129.257277 L143.510754,129.257277 C161.210837,129.280129 175.553889,143.616062 175.576753,161.30736 L175.576753,179.917978 Z M75.7820537,177.152656 L172.810057,177.152656 L172.810057,161.30736 C172.791,145.141729 159.684412,132.041646 143.510754,132.022599 L105.081357,132.022599 C88.9076991,132.041646 75.8011105,145.141729 75.7820537,161.30736 L75.7820537,177.152656 Z" id="Shape" fill="#676F8D"></path>
                <ellipse id="Oval" fill="#E3F2FB" cx="203.741711" cy="138.562586" rx="5.125303" ry="5.12275926"></ellipse>
                <path d="M113.478277,117.235039 L133.018063,117.235039 L133.018063,134.290163 C133.018063,139.685157 128.642384,144.058664 123.244711,144.058664 L123.244711,144.058664 C117.84974,144.054847 113.478276,139.682458 113.478277,134.290163 L113.478277,117.235039 Z" id="Shape" fill="#EFC7B0"></path>
                <path d="M123.258545,145.420584 C117.10541,145.416806 112.113978,140.440215 112.09493,134.290163 L112.09493,115.852378 L134.40141,115.852378 L134.40141,134.290163 C134.382404,140.432136 129.403579,145.405402 123.258545,145.420584 Z M114.861624,118.6177 L114.861624,134.290163 C114.991962,138.825908 118.708301,142.435249 123.248169,142.435249 C127.788038,142.435249 131.504378,138.825908 131.634715,134.290163 L131.634715,118.6177 L114.861624,118.6177 Z" id="Shape" fill="#676F8D"></path>
                <rect id="Rectangle-path" fill="#E3F2FB" x="34.6274616" y="11.2333278" width="191.593648" height="22.1225771" rx="11.0612886"></rect>
                <rect id="Rectangle-path" fill="#E3F2FB" x="13.7043286" y="48.2817311" width="191.593648" height="22.1225771" rx="11.0612886"></rect>
                <rect id="Rectangle-path" fill="#E3F2FB" x="31.8607663" y="90.0450087" width="191.593648" height="22.1225771" rx="11.0612886"></rect>
                <rect id="Rectangle-path" fill="#FFFFFF" x="45.6942427" y="33.3559049" width="23.1710729" height="14.9258262" rx="7.46291311"></rect>
                <rect id="Rectangle-path" fill="#FFFFFF" x="62.8131698" y="112.368071" width="23.1710729" height="14.9258262" rx="7.46291311"></rect>
                <rect id="Rectangle-path" fill="#FFFFFF" x="155.67038" y="112.368071" width="43.5477836" height="14.9258262" rx="7.46291311"></rect>
                <path d="M28.1049775,70.4043084 L80.3816846,70.4043084 C85.8633979,70.4043084 90.3072038,74.8459089 90.3072038,80.3249011 L90.3072038,80.3249011 C90.3072038,85.803894 85.8633979,90.2454945 80.3816846,90.2454945 L28.1049775,90.2454945 L28.1049775,70.4043084 Z" id="Shape" fill="#FFFFFF"></path>
                <path d="M174.193405,70.4112212 L226.470112,70.4112212 C231.951825,70.4112212 236.395631,74.8528224 236.395631,80.3318146 L236.395631,80.3318146 C236.395631,85.8108068 231.951825,90.252408 226.470112,90.252408 L174.193405,90.252408 L174.193405,70.4112212 Z" id="Shape" fill="#FFFFFF" transform="translate(205.294518, 80.331815) rotate(180.000000) translate(-205.294518, -80.331815) "></path>
                <rect id="Rectangle-path" fill="#FFFFFF" x="175.383084" y="33.3559049" width="23.1710729" height="14.9258262" rx="7.46291311"></rect>
                <ellipse id="Oval" fill="#E3F2FB" cx="27.3026359" cy="16.3560871" rx="5.125303" ry="5.12275926"></ellipse>
                <rect id="Rectangle-path" fill="#E3F2FB" x="215.61775" y="48.2817311" width="27.2035313" height="22.1225771" rx="11.0612886"></rect>
                <rect id="Rectangle-path" fill="#E3F2FB" x="0.0991045853" y="90.0450087" width="27.2035313" height="22.1225771" rx="11.0612886"></rect>
                <path d="M90.3072038,49.4362531 L156.202968,49.4362531 L156.202968,91.6627221 C156.202968,109.733852 141.546149,124.383397 123.466047,124.383397 L123.037209,124.383397 C104.957106,124.383397 90.3002871,109.733852 90.3002871,91.6627221 L90.3002871,49.4362531 L90.3072038,49.4362531 Z" id="Shape" fill="#F1DBCB"></path>
                <path d="M123.472964,125.766058 L123.044126,125.766058 C104.207923,125.747277 88.9429193,110.708814 88.9238565,92.1521498 L88.9238565,49.1688678 L157.586316,49.1688678 L157.586316,92.1521498 C157.56726,110.706157 142.306465,125.743522 123.472964,125.766058 L123.472964,125.766058 Z M91.6905518,51.894504 L91.6905518,92.1521498 C91.7096113,109.203488 105.735926,123.021644 123.044126,123.040421 L123.472964,123.040421 C140.781164,123.021644 154.807478,109.203488 154.826538,92.1521498 L154.826538,51.894504 L91.6905518,51.894504 Z" id="Shape" fill="#676F8D"></path>
                <path d="M90.5581522,68.384399 L90.5572837,68.4783938 C90.5572837,68.4783938 136.686984,69.1108325 155.797952,50.2361506 L157.720227,49.7014167 L169.165635,29.7230818 C151.880624,37.4028768 121.521884,33.8601913 102.655936,38.4028095 C89.1308341,41.6594374 84.7617188,49.7014167 90.4199219,68.4228516 L90.5581522,68.384399 Z" id="Combined-Shape" fill="#676F8D"></path>
                <ellipse id="Oval" fill="#676F8D" cx="109.501152" cy="78.638055" rx="3.11253219" ry="3.1109874"></ellipse>
                <ellipse id="Oval" fill="#676F8D" cx="137.458608" cy="78.638055" rx="3.11253219" ry="3.1109874"></ellipse>
                <polyline id="Shape" fill="#F1DBCB" points="127.65759 76.7645494 127.65759 90.2454945 123.334629 90.2454945"></polyline>
                <path d="M129.040938,91.6281555 L123.334629,91.6281555 C122.570627,91.6281555 121.951281,91.0091169 121.951281,90.2454945 C121.951281,89.4818721 122.570627,88.8628335 123.334629,88.8628335 L126.274243,88.8628335 L126.274243,76.7645494 C126.274243,76.0009264 126.893589,75.3818878 127.65759,75.3818878 C128.421592,75.3818878 129.040938,76.0009264 129.040938,76.7645494 L129.040938,91.6281555 Z" id="Shape" fill="#676F8D"></path>
                <path d="M112.613685,103.525954 C112.613685,103.525954 117.974157,109.402264 127.65759,108.365268" id="Shape" fill="#F1DBCB"></path>
                <path d="M127.36815,109.872369 C118.639226,109.872369 113.811343,104.694303 113.590007,104.45925 C113.256407,104.088767 113.145896,103.568542 113.300103,103.094538 C113.45431,102.620533 113.849807,102.264763 114.337614,102.161241 C114.825421,102.05772 115.331428,102.222175 115.665029,102.592658 C115.879448,102.820797 120.734998,107.936643 129.546922,106.98952 C130.310924,106.907431 130.99685,107.459922 131.07898,108.223545 C131.16111,108.987168 130.608344,109.672753 129.844342,109.754842 C129.021667,109.838592 128.195063,109.877824 127.36815,109.872369 L127.36815,109.872369 Z" id="Shape" fill="#676F8D" transform="translate(122.159365, 106.001827) scale(1, -1) rotate(-29.000000) translate(-122.159365, -106.001827) "></path>
                <path d="M122.994907,109.858916 C121.632938,109.84742 120.318298,109.358039 119.280619,108.476255 C118.843228,108.105898 118.789035,107.451265 119.159576,107.014091 C119.530117,106.576917 120.185075,106.522751 120.622466,106.893108 C121.391932,107.537468 122.391378,107.83965 123.389161,107.729618 C123.962162,107.666619 124.477768,108.079828 124.540798,108.652545 C124.603828,109.225261 124.190415,109.740611 123.617413,109.80361 C123.411146,109.833976 123.203299,109.852442 122.994907,109.858916 Z" id="Shape" fill="#676F8D" transform="translate(121.730356, 108.253068) scale(1, -1) rotate(-29.000000) translate(-121.730356, -108.253068) "></path>
                <path d="M88.8062719,70.2245623 L90.3072038,70.2245623 L90.3072038,85.6619733 L88.8062719,85.6619733 C84.5393214,85.6619733 81.0802753,82.2046431 81.0802753,77.9398111 L81.0802753,77.9398111 C81.0840931,73.6776789 84.5420212,70.2245603 88.8062719,70.2245623 Z" id="Shape" fill="#EFC7B0"></path>
                <path d="M91.6905518,87.0515478 L88.8062719,87.0515478 C85.4932133,87.1428211 82.3919821,85.4283492 80.7085289,82.574827 C79.0250763,79.7213041 79.0250763,76.1790578 80.7085289,73.3255356 C82.3919821,70.4720127 85.4932133,68.7575408 88.8062719,68.8488148 L91.6905518,68.8488148 L91.6905518,87.0515478 Z M88.8062719,71.6141367 C86.4915609,71.5377047 84.3191904,72.7283532 83.1391953,74.7201871 C81.9592001,76.7120216 81.9592001,79.1883403 83.1391953,81.1801748 C84.3191904,83.1720087 86.4915609,84.3626572 88.8062719,84.2862251 L88.9238565,84.2862251 L88.9238565,71.6072233 L88.8062719,71.6141367 Z" id="Shape" fill="#676F8D"></path>
                <path d="M165.007976,70.2314758 L166.508908,70.2314758 L166.508908,85.6688861 L165.007976,85.6688861 C160.741026,85.6688861 157.281979,82.2115566 157.281979,77.9467245 L157.281979,77.9467245 C157.285797,73.6845923 160.743726,70.2314738 165.007976,70.2314758 L165.007976,70.2314758 Z" id="Shape" fill="#EFC7B0" transform="translate(161.895444, 77.950181) rotate(180.000000) translate(-161.895444, -77.950181) "></path>
                <path d="M158.782912,87.0515478 L155.898632,87.0515478 L155.898632,68.8419013 L158.782912,68.8419013 C162.09597,68.750628 165.197202,70.4650992 166.880655,73.3186221 C168.564107,76.172145 168.564107,79.7143907 166.880655,82.5679135 C165.197202,85.4214364 162.09597,87.1359077 158.782912,87.0446343 L158.782912,87.0515478 Z M158.665328,84.2862251 L158.782912,84.2862251 C161.097623,84.3626572 163.269994,83.1720087 164.449989,81.1801748 C165.629984,79.1883403 165.629984,76.7120216 164.449989,74.7201871 C163.269994,72.7283532 161.097623,71.5377047 158.782912,71.6141367 L158.665328,71.6141367 L158.665328,84.2862251 Z" id="Shape" fill="#676F8D"></path>
                <rect id="Rectangle-path" fill="#676F8D" x="89.0967747" y="159.641253" width="2.76669528" height="18.8940635"></rect>
                <rect id="Rectangle-path" fill="#676F8D" x="155.898632" y="159.641253" width="2.76669528" height="18.8940635"></rect>
                <polygon id="Shape" fill="#FFFFFF" points="191.637419 137.746816 191.637419 141.203468 194.867535 139.316136"></polygon>
            </g>
        </g>
    </g>
</svg>